<?xml version="1.0" encoding="UTF-8" standalone="no"?>
<!-- Generator: Adobe Illustrator 16.0.0, SVG Export Plug-In . SVG Version: 6.00 Build 0)  -->

<svg
   xmlns:dc="http://purl.org/dc/elements/1.1/"
   xmlns:cc="http://creativecommons.org/ns#"
   xmlns:rdf="http://www.w3.org/1999/02/22-rdf-syntax-ns#"
   xmlns:svg="http://www.w3.org/2000/svg"
   xmlns="http://www.w3.org/2000/svg"
   xmlns:sodipodi="http://sodipodi.sourceforge.net/DTD/sodipodi-0.dtd"
   xmlns:inkscape="http://www.inkscape.org/namespaces/inkscape"
   version="1.1"
   id="svg2"
   inkscape:output_extension="org.inkscape.output.svg.inkscape"
   sodipodi:docname="bathroom.svg"
   inkscape:version="0.92.3 (2405546, 2018-03-11)"
   sodipodi:version="0.32"
   x="0px"
   y="0px"
   width="580px"
   height="580px"
   viewBox="0 0 580 580"
   enable-background="new 0 0 580 580"
   xml:space="preserve"><metadata
   id="metadata23"><rdf:RDF><cc:Work
       rdf:about=""><dc:format>image/svg+xml</dc:format><dc:type
         rdf:resource="http://purl.org/dc/dcmitype/StillImage" /><dc:title></dc:title></cc:Work></rdf:RDF></metadata>
<sodipodi:namedview
   showgrid="false"
   inkscape:cy="231.46348"
   inkscape:cx="293.90042"
   inkscape:zoom="0.92167712"
   pagecolor="#ffffff"
   bordercolor="#666666"
   guidetolerance="10.0"
   objecttolerance="10.0"
   gridtolerance="10.0"
   borderopacity="1.0"
   id="base"
   inkscape:current-layer="layer1"
   inkscape:window-y="-9"
   inkscape:window-x="-9"
   inkscape:pageopacity="0.0"
   inkscape:pageshadow="2"
   inkscape:window-height="1001"
   inkscape:window-width="1920"
   inkscape:window-maximized="1">
	</sodipodi:namedview>
<defs
   id="defs7">
	
	
		<inkscape:perspective
   inkscape:vp_z="580 : 290 : 1"
   inkscape:vp_y="0 : 1000 : 0"
   inkscape:vp_x="0 : 290 : 1"
   sodipodi:type="inkscape:persp3d"
   id="perspective2441"
   inkscape:persp3d-origin="290 : 193.33333 : 1">
		</inkscape:perspective>
	
		<inkscape:perspective
   inkscape:vp_z="60 : 30 : 1"
   inkscape:vp_y="0 : 1000 : 0"
   inkscape:vp_x="0 : 30 : 1"
   sodipodi:type="inkscape:persp3d"
   id="perspective3452"
   inkscape:persp3d-origin="30 : 20 : 1">
		</inkscape:perspective>
	
		<inkscape:perspective
   inkscape:vp_z="744.09448 : 526.18109 : 1"
   inkscape:vp_y="0 : 1000 : 0"
   inkscape:vp_x="0 : 526.18109 : 1"
   sodipodi:type="inkscape:persp3d"
   id="perspective4471"
   inkscape:persp3d-origin="372.04724 : 350.78739 : 1">
		</inkscape:perspective>
	
		<inkscape:perspective
   inkscape:vp_z="12 : 6 : 1"
   inkscape:vp_y="0 : 1000 : 0"
   inkscape:vp_x="0 : 6 : 1"
   sodipodi:type="inkscape:persp3d"
   id="perspective4668"
   inkscape:persp3d-origin="6 : 4 : 1">
		</inkscape:perspective>
</defs>
<g
   id="layer3"
   transform="matrix(48.14969,0,0,48.14969,-536.27327,-33.306752)"
   inkscape:label="Layout"
   display="none">
	<rect
   id="rect4134"
   x="1"
   y="1"
   display="inline"
   fill="none"
   stroke="#757575"
   stroke-width="0.1"
   width="10"
   height="10" />
	<rect
   id="rect4136"
   x="2"
   y="2"
   display="inline"
   fill="none"
   stroke="#757575"
   stroke-width="0.1"
   width="8"
   height="8" />
</g>





<g
   inkscape:groupmode="layer"
   id="layer1"
   inkscape:label="Layer 1"><g
     id="g889"><rect
       y="16.285107"
       x="-21.019753"
       height="545.2702"
       width="640.54321"
       id="rect830"
       style="fill:#1f78b4;fill-opacity:1;stroke-width:1.01582491" /><path
       style="fill:#ffffff"
       id="path12"
       d="m 140.513,136.156 c 10.35,0 19.129,-3.601 26.338,-10.804 7.209,-7.202 10.813,-15.758 10.813,-25.668 0,-10.363 -3.604,-19.146 -10.813,-26.349 -7.209,-7.202 -15.989,-10.803 -26.338,-10.804 -9.91,10e-4 -18.469,3.602 -25.678,10.804 -7.209,7.203 -10.814,15.985 -10.814,26.349 0,9.91 3.604,18.466 10.814,25.668 7.208,7.203 15.768,10.804 25.678,10.804 z"
       stroke-width="param(outline-width)"
       stroke-opacity="param(outline-opacity)"
       stroke="param(outline)"
       fill-opacity="param(fill-opacity)"
       inkscape:connector-curvature="0" /><path
       style="fill:#ffffff"
       id="path14"
       d="m 456.528,135.496 c 9.909,0 18.469,-3.604 25.678,-10.813 7.209,-7.209 10.813,-15.768 10.814,-25.679 -10e-4,-10.349 -3.605,-19.015 -10.814,-25.998 -7.209,-6.982 -15.769,-10.473 -25.678,-10.474 -9.911,0.001 -18.467,3.492 -25.669,10.474 -7.202,6.983 -10.804,15.649 -10.803,25.998 -10e-4,9.911 3.601,18.47 10.803,25.679 7.203,7.209 15.758,10.814 25.669,10.813 z"
       stroke-width="param(outline-width)"
       stroke-opacity="param(outline-opacity)"
       stroke="param(outline)"
       fill-opacity="param(fill-opacity)"
       inkscape:connector-curvature="0" /><path
       style="fill:#ffffff"
       id="path16"
       d="m 538.625,157.443 c -8.783,-9.683 -20.157,-14.524 -34.121,-14.524 h -96.611 c -13.058,0 -24.205,4.619 -33.441,13.854 -9.236,9.237 -13.854,20.61 -13.854,34.121 V 303.03 c 0,10.817 4.955,16.226 14.865,16.226 9.456,0 14.184,-5.408 14.185,-16.226 V 193.595 h 17.565 v 297.256 c 0,13.511 6.755,20.267 20.267,20.267 13.511,0 20.267,-6.756 20.267,-20.267 V 318.576 h 17.565 v 172.275 c 0,13.511 6.755,20.267 20.267,20.267 13.965,0 20.946,-6.756 20.947,-20.267 V 193.595 h 16.886 V 303.03 c -0.001,11.257 4.728,16.886 14.185,16.886 9.469,0 14.204,-5.629 14.205,-16.886 V 191.554 c -0.003,-13.057 -4.395,-24.427 -13.177,-34.111 z"
       stroke-width="param(outline-width)"
       stroke-opacity="param(outline-opacity)"
       stroke="param(outline)"
       fill-opacity="param(fill-opacity)"
       inkscape:connector-curvature="0" /><path
       style="fill:#ffffff"
       id="path18"
       d="m 222.919,176.71 c -2.254,-7.216 -7.429,-14.198 -15.524,-20.947 -9.91,-8.109 -20.72,-12.164 -32.431,-12.164 h -72.283 c -11.271,0 -21.408,4.055 -30.41,12.164 -6.763,6.295 -11.264,13.278 -13.504,20.947 l -31.09,103.353 c -0.894,2.254 -1.34,4.282 -1.34,6.082 0,10.364 5.175,15.545 15.525,15.545 7.216,0 11.951,-4.055 14.205,-12.164 L 84.436,194.935 H 99.96 L 53.344,363.149 h 45.275 v 131.063 c 0,11.711 5.628,17.566 16.885,17.566 11.257,0 16.885,-5.855 16.885,-17.566 V 362.49 h 16.906 v 132.402 c 0,11.257 5.628,16.886 16.885,16.886 11.256,0 16.885,-5.629 16.885,-16.886 V 363.149 h 45.254 L 181.044,194.935 h 16.205 l 28.369,94.591 c 2.254,8.109 6.982,12.164 14.185,12.164 10.363,0 15.545,-5.182 15.545,-15.545 0,-2.254 -0.447,-4.281 -1.34,-6.082 z"
       stroke-width="param(outline-width)"
       stroke-opacity="param(outline-opacity)"
       stroke="param(outline)"
       fill-opacity="param(fill-opacity)"
       inkscape:connector-curvature="0" /><rect
       style="fill:#ffffff"
       id="rect20"
       height="451.28601"
       width="35.812"
       stroke-width="param(outline-width)"
       stroke-opacity="param(outline-opacity)"
       stroke="param(outline)"
       fill-opacity="param(fill-opacity)"
       y="61.172001"
       x="282.646" /></g></g></svg>