<?xml version="1.0" standalone="no"?>
<!DOCTYPE svg PUBLIC "-//W3C//DTD SVG 20010904//EN"
 "http://www.w3.org/TR/2001/REC-SVG-20010904/DTD/svg10.dtd">
<svg version="1.0" xmlns="http://www.w3.org/2000/svg"
 width="240.000000pt" height="240.000000pt" viewBox="0 0 240.000000 240.000000"
 preserveAspectRatio="xMidYMid meet">
<metadata>
Created by potrace 1.15, written by Peter Selinger 2001-2017
</metadata>
<g transform="translate(0.000000,240.000000) scale(0.100000,-0.100000)"
fill="#000000" stroke="none">
<path d="M1480 1956 l-215 -193 -110 -6 c-176 -9 -321 -60 -451 -158 -36 -27
-66 -49 -68 -49 -3 0 -616 299 -628 307 -5 2 -8 -12 -8 -32 l0 -36 368 -180
c395 -195 432 -211 451 -199 26 15 6 45 -49 73 -30 15 -58 31 -63 36 -4 4 29
23 75 42 74 30 95 34 193 36 l110 4 -30 -27 c-142 -125 -325 -299 -325 -308 0
-7 22 -33 48 -59 l48 -47 88 119 c48 66 86 126 84 134 -2 8 29 43 67 78 39 34
81 73 95 85 l25 23 75 -19 c99 -26 175 -26 218 0 36 22 38 35 18 84 -14 33
-81 76 -119 76 -26 0 -21 13 18 49 19 17 35 40 35 50 0 11 57 70 143 147 78
70 144 130 146 131 3 2 -2 10 -10 18 -12 13 -41 -10 -229 -179z"/>
<path d="M1645 1905 c-71 -33 -105 -87 -105 -166 0 -151 174 -230 291 -132 40
34 59 79 59 138 0 125 -134 212 -245 160z"/>
<path d="M1012 1260 c-40 -24 -57 -63 -66 -149 -23 -205 -160 -392 -361 -491
-142 -70 -140 -70 -375 -2 l-205 59 -3 -30 c-2 -16 -2 -31 1 -33 4 -4 70 -23
787 -225 195 -55 360 -102 365 -104 6 -2 -133 -4 -307 -4 l-318 -1 0 -30 0
-30 883 2 882 3 36 22 c29 18 59 58 59 78 0 2 -9 9 -21 16 -18 9 -25 7 -49
-16 -15 -15 -45 -31 -66 -36 -22 -4 -205 -9 -407 -9 -367 0 -368 0 -357 20 12
23 5 60 -12 60 -5 0 -23 -11 -39 -24 -29 -25 -108 -44 -128 -32 -6 4 18 40 57
85 76 89 122 162 160 253 20 50 26 80 26 143 0 133 -48 230 -178 360 -82 82
-127 104 -178 86 -26 -9 -34 -9 -40 4 -12 20 -61 45 -90 45 -13 0 -38 -9 -56
-20z m220 -287 c121 -126 145 -180 129 -299 -8 -56 -26 -108 -71 -207 -34 -72
-62 -132 -63 -134 -2 -1 -95 24 -207 56 -113 32 -267 75 -343 96 l-138 39 88
23 c140 38 282 113 361 192 70 69 130 162 160 244 9 26 19 47 22 47 3 0 31
-26 62 -57z"/>
</g>
</svg>
