<?xml version="1.0" encoding="UTF-8" standalone="no"?>
<!-- Generator: Adobe Illustrator 19.0.0, SVG Export Plug-In . SVG Version: 6.00 Build 0)  -->

<svg
   xmlns:dc="http://purl.org/dc/elements/1.1/"
   xmlns:cc="http://creativecommons.org/ns#"
   xmlns:rdf="http://www.w3.org/1999/02/22-rdf-syntax-ns#"
   xmlns:svg="http://www.w3.org/2000/svg"
   xmlns="http://www.w3.org/2000/svg"
   xmlns:sodipodi="http://sodipodi.sourceforge.net/DTD/sodipodi-0.dtd"
   xmlns:inkscape="http://www.inkscape.org/namespaces/inkscape"
   version="1.1"
   id="Layer_1"
   x="0px"
   y="0px"
   viewBox="-265 187.3 63.2 55.7"
   style="enable-background:new -265 187.3 63.2 55.7;"
   xml:space="preserve"
   sodipodi:docname="lodge-icon.svg"
   inkscape:version="0.92.3 (2405546, 2018-03-11)"><metadata
   id="metadata851"><rdf:RDF><cc:Work
       rdf:about=""><dc:format>image/svg+xml</dc:format><dc:type
         rdf:resource="http://purl.org/dc/dcmitype/StillImage" /></cc:Work></rdf:RDF></metadata><defs
   id="defs849" /><sodipodi:namedview
   pagecolor="#ffffff"
   bordercolor="#666666"
   borderopacity="1"
   objecttolerance="10"
   gridtolerance="10"
   guidetolerance="10"
   inkscape:pageopacity="0"
   inkscape:pageshadow="2"
   inkscape:window-width="1920"
   inkscape:window-height="1001"
   id="namedview847"
   showgrid="false"
   inkscape:zoom="13.967684"
   inkscape:cx="31.6"
   inkscape:cy="27.85"
   inkscape:window-x="-9"
   inkscape:window-y="-9"
   inkscape:window-maximized="1"
   inkscape:current-layer="Layer_1" />
<style
   type="text/css"
   id="style834">
	.st0{fill:#F26922;}
</style>
<g
   id="g844"
   style="fill:#13810d;fill-opacity:1">
	<g
   id="g838"
   style="fill:#13810d;fill-opacity:1">
		<path
   class="st0"
   d="M-203.6,216.8c-0.4,0-0.8-0.1-1.1-0.4l-28.8-25l-28.6,24.9c-0.7,0.6-1.8,0.6-2.5-0.2    c-0.6-0.7-0.6-1.8,0.2-2.5l29.8-26c0.7-0.6,1.6-0.6,2.3,0l29.9,26c0.7,0.6,0.8,1.7,0.2,2.5C-202.6,216.6-203.1,216.8-203.6,216.8z    "
   id="path836"
   style="fill:#13810d;fill-opacity:1" />
	</g>
	<g
   id="g842"
   style="fill:#13810d;fill-opacity:1">
		<path
   class="st0"
   d="M-210.9,215.6l-21.4-19c-0.7-0.6-1.7-0.6-2.3,0l-21.3,19.1c-0.4,0.3-0.6,0.8-0.6,1.3v24.3    c0,1,0.8,1.8,1.8,1.8h17.5v-13.8h7.6v13.8h17.5c1,0,1.8-0.8,1.8-1.8v-24.4C-210.3,216.4-210.5,216-210.9,215.6z M-213.8,239.5    h-12.3v-12c0-1-0.8-1.8-1.8-1.8H-239c-1,0-1.8,0.8-1.8,1.8v12.1H-253v-21.9l19.5-17.4l19.6,17.5L-213.8,239.5L-213.8,239.5z"
   id="path840"
   style="fill:#13810d;fill-opacity:1" />
	</g>
</g>
</svg>