<?xml version="1.0" encoding="utf-8"?>
<!-- Generator: Adobe Illustrator 15.0.2, SVG Export Plug-In . SVG Version: 6.00 Build 0)  -->
<!DOCTYPE svg PUBLIC "-//W3C//DTD SVG 1.1//EN" "http://www.w3.org/Graphics/SVG/1.1/DTD/svg11.dtd">
<svg version="1.1" id="Layer_2" xmlns="http://www.w3.org/2000/svg" xmlns:xlink="http://www.w3.org/1999/xlink" x="0px" y="0px"
	 width="612px" height="381px" viewBox="0 0 612 381" enable-background="new 0 0 612 381" xml:space="preserve">
<path fill="#0074B4" d="M27.924,214.102h11.433c5.717,0,9.993,2.607,9.993,8.094c0,3.702-2.324,6.035-5.67,7.132v0.091
	c3.95,0.274,7.11,3.704,7.11,8.047c0,5.807-5.158,9.007-11.572,9.007H27.924V214.102z M32.386,227.544h6.088
	c3.393,0,6.136-1.326,6.136-4.846c0-2.562-1.627-4.755-5.206-4.755h-7.018V227.544z M32.386,242.632h6.553
	c2.696,0,7.112-0.915,7.112-5.486c0-3.84-2.742-5.761-7.065-5.761h-6.6V242.632z"/>
<path fill="#0074B4" d="M76.401,214.102v19.843c0,4.023,2.045,9.236,8.273,9.236c6.229,0,8.273-5.213,8.273-9.236v-19.843h4.462
	v20.529c0,7.498-5.531,12.664-12.735,12.664c-7.204,0-12.735-5.166-12.735-12.664v-20.529H76.401z"/>
<polygon fill="#0074B4" points="119.207,214.102 123.668,214.102 123.668,242.358 138.774,242.358 138.774,246.472 119.207,246.472 
	"/>
<polygon fill="#0074B4" points="157.272,214.102 161.734,214.102 161.734,228.093 162.105,228.093 176.652,214.102 182.882,214.102 
	166.986,229.053 183.951,246.472 177.443,246.472 162.105,230.288 161.734,230.288 161.734,246.472 157.272,246.472 "/>
<polygon fill="#0074B4" points="202.729,214.102 207.189,214.102 207.189,242.358 222.295,242.358 222.295,246.472 202.729,246.472 
	"/>
<polygon fill="#0074B4" points="242.187,214.102 263.426,214.102 263.426,218.217 246.647,218.217 246.647,227.864 262.264,227.864 
	262.264,231.979 246.647,231.979 246.647,242.358 264.263,242.358 264.263,246.472 242.187,246.472 "/>
<polygon fill="#0074B4" points="292.292,232.665 279.836,214.102 285.552,214.102 294.524,228.321 303.771,214.102 309.21,214.102 
	296.753,232.665 296.753,246.472 292.292,246.472 "/>
<polygon fill="#0074B4" points="339.05,214.102 344.208,214.102 353.875,240.437 353.968,240.437 364.006,214.102 368.887,214.102 
	355.919,246.472 351.736,246.472 "/>
<path fill="#0074B4" d="M396.36,214.102h4.044l14.084,32.371h-5.206l-3.301-8.001h-15.664l-3.252,8.001h-5.206L396.36,214.102z
	 M404.354,234.631l-6.134-14.859h-0.094l-6.228,14.859H404.354z"/>
<polygon fill="#0074B4" points="434.103,214.102 438.563,214.102 438.563,242.358 453.669,242.358 453.669,246.472 434.103,246.472 
	"/>
<polygon fill="#0074B4" points="473.563,214.102 478.023,214.102 478.023,242.358 493.129,242.358 493.129,246.472 473.563,246.472 
	"/>
<polygon fill="#0074B4" points="513.023,214.102 534.263,214.102 534.263,218.217 517.484,218.217 517.484,227.864 533.101,227.864 
	533.101,231.979 517.484,231.979 517.484,242.358 535.1,242.358 535.1,246.472 513.023,246.472 "/>
<polygon fill="#0074B4" points="564.521,232.665 552.065,214.102 557.782,214.102 566.754,228.321 576.001,214.102 581.439,214.102 
	568.982,232.665 568.982,246.472 564.521,246.472 "/>
<polygon fill="#0074B4" points="28.055,260.846 42.593,260.846 63.235,294.589 63.373,294.589 63.373,260.846 74.071,260.846 
	74.071,309.401 60.081,309.401 38.89,274.836 38.752,274.836 38.752,309.401 28.055,309.401 "/>
<path fill="#0074B4" d="M106.51,259.611c15.157,0,26.197,9.945,26.197,25.513c0,15.568-11.04,25.51-26.197,25.51
	c-15.156,0-26.198-9.942-26.198-25.51C80.312,269.556,91.354,259.611,106.51,259.611z M106.51,300.76
	c9.122,0,15.087-6.583,15.087-15.636s-5.965-15.637-15.087-15.637c-9.121,0-15.088,6.584-15.088,15.637S97.389,300.76,106.51,300.76
	z"/>
<path fill="#0074B4" d="M139.977,260.846h18.79c9.945,0,18.31,3.429,18.31,14.745c0,6.789-3.633,12.07-10.492,13.304l12.345,20.506
	h-12.825l-10.149-19.41h-5.281v19.41h-10.698V260.846z M150.675,280.939h6.31c3.909,0,8.984-0.136,8.984-5.416
	c0-4.87-4.39-5.625-8.298-5.625h-6.996V280.939z"/>
<path fill="#0074B4" d="M184.76,260.846h16.048c15.636,0,28.735,6.653,28.735,24.415c0,15.704-12.826,24.141-27.294,24.141H184.76
	V260.846z M195.458,299.524h5.555c9.945,0,17.421-3.771,17.421-14.812c0-9.533-7.612-13.991-16.665-13.991h-6.311V299.524z"/>
<rect x="235.988" y="260.846" fill="#0074B4" width="10.698" height="48.555"/>
<path fill="#0074B4" d="M288.176,273.466c-2.125-2.539-5.211-3.979-9.189-3.979c-8.092,0-14.059,6.584-14.059,15.637
	s5.967,15.636,13.716,15.636c4.321,0,7.817-1.92,10.013-5.213l8.917,6.654c-4.049,5.759-10.905,8.433-17.557,8.433
	c-15.156,0-26.198-9.942-26.198-25.51c0-15.568,11.042-25.513,26.198-25.513c5.416,0,12.275,1.853,16.389,7.132L288.176,273.466z"/>
<path fill="#0074B4" d="M352.022,273.466c-2.126-2.539-5.212-3.979-9.189-3.979c-8.093,0-14.06,6.584-14.06,15.637
	s5.967,15.636,13.716,15.636c4.321,0,7.816-1.92,10.013-5.213l8.916,6.654c-4.046,5.759-10.904,8.433-17.557,8.433
	c-15.156,0-26.197-9.942-26.197-25.51c0-15.568,11.041-25.513,26.197-25.513c5.416,0,12.275,1.853,16.39,7.132L352.022,273.466z"/>
<polygon fill="#0074B4" points="366.974,260.846 399.959,260.846 399.959,270.721 377.671,270.721 377.671,279.774 398.726,279.774 
	398.726,289.65 377.671,289.65 377.671,299.524 401.195,299.524 401.195,309.401 366.974,309.401 "/>
<polygon fill="#0074B4" points="408.396,260.846 422.935,260.846 443.577,294.589 443.714,294.589 443.714,260.846 454.412,260.846 
	454.412,309.401 440.421,309.401 419.229,274.836 419.093,274.836 419.093,309.401 408.396,309.401 "/>
<polygon fill="#0074B4" points="473.682,270.311 459.83,270.311 459.83,260.846 498.234,260.846 498.234,270.311 484.383,270.311 
	484.383,309.401 473.682,309.401 "/>
<path fill="#0074B4" d="M503.652,260.846h18.791c9.944,0,18.312,3.429,18.312,14.745c0,6.789-3.637,12.07-10.493,13.304
	l12.343,20.506h-12.823l-10.149-19.41h-5.282v19.41h-10.698V260.846z M514.351,280.939h6.311c3.907,0,8.982-0.136,8.982-5.416
	c0-4.87-4.388-5.625-8.297-5.625h-6.996V280.939z"/>
<polygon fill="#0074B4" points="547.819,260.846 580.805,260.846 580.805,270.721 558.518,270.721 558.518,279.774 579.572,279.774 
	579.572,289.65 558.518,289.65 558.518,299.524 582.041,299.524 582.041,309.401 547.819,309.401 "/>
<path fill="#0074B4" d="M173.572,125.346c19.867-10.62,28.91-15.346,41.895-15.346c20.066,1.577,33.37,12.969,46.216,23.417
	c13.24,10.74,19.308,17.377,42.695,19.076c0,0-17.312,2.554-31.475-6.885c-14.163-9.444-24.75-19.312-41.51-26.159
	c-9.432-3.863-17.226-4.462-23.344-3.942C199.994,116.184,196.979,116.884,173.572,125.346z"/>
<path fill="#0074B4" d="M160.714,178.839c6.065,2.599,34.382,16.173,121.368-13.009c28.614-10.109,41.331-13.293,63.581-16.178
	c0,0,23.125,18.783,57.514,23.987c-26.59,3.175-58.375-16.768-58.375-16.768s-19.942,2.023-41.038,8.379
	C276.889,174.506,176.604,203.118,160.714,178.839z"/>
<path fill="#C1CFE7" d="M301.585,56.273c-1.16,0-2.427,0.932-3.31,2.063c-23.128,27.088-50.286,43.625-50.286,43.625
	c6.437,4.347,18.438,5.651,29.006,5.651c8.402,0,15.899-0.824,18.974-1.597c5.919-1.495,16.508-11.651,22.887-11.651
	c1.077,0,2.032,0.291,2.826,0.959c-6.776,11.646,0.325,15.745,0.325,21.125c0,5.356-1.304,16.118,3.146,24.247
	c7.206,0,19.617-26.285,24.169-26.284c0.376,0,0.7,0.18,0.963,0.57c3.189,4.704,6.543,8.337,14.393,11.109
	c5.52,1.956,8.502,9.061,20.008,13.439c0.099,0.041,0.185,0.059,0.264,0.059c1.038,0,0.083-3.558-0.915-7.116
	c-0.974-3.579-1.986-7.136-0.976-7.136c0.056,0,0.116,0.01,0.182,0.031c2.586,0.886,5.777,7.245,11.833,10.994
	c6.078,3.75,19.169,9.736,35.566,9.806c-29.092-14.673-13.579-10.947-32.959-22.22c-19.354-11.249-20.215-29.882-26.296-31.512
	c-13.298-2.609-19.938-8.106-24.851-13.579c-1.59-1.658-3.608-2.259-5.147-2.259c-0.582,0-1.095,0.086-1.491,0.232
	c-2.815,0.771-5.5,1.112-8.042,1.112c-16.523,0-27.036-14.404-27.803-19.045C303.53,56.984,302.599,56.273,301.585,56.273"/>
</svg>
