<svg xmlns="http://www.w3.org/2000/svg" xmlns:xlink="http://www.w3.org/1999/xlink" viewBox="0 0 863.93 187.34"><defs><style>.cls-1,.cls-10,.cls-12,.cls-2,.cls-3,.cls-4,.cls-5,.cls-6,.cls-7,.cls-8,.cls-9{fill-rule:evenodd;}.cls-1{fill:url(#GradientFill_1);}.cls-2{fill:url(#GradientFill_2);}.cls-3{fill:url(#GradientFill_2-2);}.cls-4{fill:url(#GradientFill_2-3);}.cls-5{fill:url(#GradientFill_2-4);}.cls-6{fill:url(#GradientFill_2-5);}.cls-7{fill:url(#GradientFill_2-6);}.cls-8{fill:url(#GradientFill_2-7);}.cls-9{fill:url(#GradientFill_3);}.cls-10{fill:#233f75;}.cls-11,.cls-12{fill:#e2a82a;}</style><radialGradient id="GradientFill_1" cx="127.63" cy="120" r="74.82" gradientUnits="userSpaceOnUse"><stop offset="0" stop-color="#fff"/><stop offset="0.6" stop-color="#ffd990"/><stop offset="1" stop-color="#fdb913"/></radialGradient><linearGradient id="GradientFill_2" x1="128.89" y1="40" x2="128.89" y2="77.5" gradientUnits="userSpaceOnUse"><stop offset="0" stop-color="#febd2a"/><stop offset="0.12" stop-color="#ffc95b"/><stop offset="0.23" stop-color="#ffdfa4"/><stop offset="1" stop-color="#fff"/></linearGradient><linearGradient id="GradientFill_2-2" x1="98.93" y1="46.23" x2="112.06" y2="80.44" xlink:href="#GradientFill_2"/><linearGradient id="GradientFill_2-3" x1="73.35" y1="62.17" x2="98.59" y2="88.3" xlink:href="#GradientFill_2"/><linearGradient id="GradientFill_2-4" x1="55.76" y1="86.47" x2="89.07" y2="101.3" xlink:href="#GradientFill_2"/><linearGradient id="GradientFill_2-5" x1="158.7" y1="46.67" x2="145.23" y2="80" xlink:href="#GradientFill_2"/><linearGradient id="GradientFill_2-6" x1="183.18" y1="63.66" x2="158.13" y2="88.72" xlink:href="#GradientFill_2"/><linearGradient id="GradientFill_2-7" x1="200.6" y1="88.16" x2="169.25" y2="104.13" xlink:href="#GradientFill_2"/><radialGradient id="GradientFill_3" cx="128.52" cy="121" r="88.47" gradientUnits="userSpaceOnUse"><stop offset="0" stop-color="#fff"/><stop offset="0.56" stop-color="#fff"/><stop offset="1" stop-color="#ffe6b9"/></radialGradient></defs><g id="Layer_1" data-name="Layer 1"><path class="cls-1" d="M207.08,101.54a81.4,81.4,0,0,0-158.9,1.87l17.21-9.79,9.43,6.62s5.54-2.52,6.7-3.24l6.91,7.2S103.26,116,103.69,116s13.18-7.42,13.18-7.42l11.37-7.77,9.87,7.2,7.49,1.51,7.56,5.11S171.52,102.4,174.47,101c0,0,8,3,8.71,2.81S196.5,93.9,196.5,93.9Z" transform="translate(-23.41 -38.1)"/><path class="cls-2" d="M128.6,78.5c.8,0,1.59,0,2.38.07L133.86,39c-1.94-.15-4-.22-6.05-.22-1.29,0-2.59.07-3.89.15l1.88,39.67C126.73,78.57,127.67,78.5,128.6,78.5Z" transform="translate(-23.41 -38.1)"/><path class="cls-3" d="M115.14,80.73,102.9,42.64a86.17,86.17,0,0,0-9.29,3.67l16.78,36.36A44.9,44.9,0,0,1,115.14,80.73Z" transform="translate(-23.41 -38.1)"/><path class="cls-4" d="M101.6,88.5l-25.77-31a83.18,83.18,0,0,0-7.27,6.84L97.93,92.1A35.57,35.57,0,0,1,101.6,88.5Z" transform="translate(-23.41 -38.1)"/><path class="cls-5" d="M92,100.38,56.32,81.23a84.9,84.9,0,0,0-4.25,9.07L90,105A34,34,0,0,1,92,100.38Z" transform="translate(-23.41 -38.1)"/><path class="cls-6" d="M146.46,82.53l17.42-35.35c-3-1.44-6-2.74-9.21-3.89l-13,37.29A49.46,49.46,0,0,1,146.46,82.53Z" transform="translate(-23.41 -38.1)"/><path class="cls-7" d="M159,91.82l29.23-26.21a71,71,0,0,0-7.06-6.91L155.32,88.22A34.58,34.58,0,0,1,159,91.82Z" transform="translate(-23.41 -38.1)"/><path class="cls-8" d="M167.34,105.21,204.2,92c-1.15-3.1-2.52-6.12-4-9.07l-35,17.64A39.07,39.07,0,0,1,167.34,105.21Z" transform="translate(-23.41 -38.1)"/><path class="cls-9" d="M116.87,108.59l11.37-7.77,9.87,7.2,7.49,1.51,7.56,5.11s8.28-5.47,14.61-9.58a48.32,48.32,0,0,0-4.17-8.13L191,75.69,161.87,94.48a43.61,43.61,0,0,0-9.29-8.86L169.79,56.1,150.06,84a41.48,41.48,0,0,0-11.95-4.9l4.89-34-7.77,33.41a50,50,0,0,0-6.63-.51,44.22,44.22,0,0,0-7,.58l-7.85-33.48,4.9,34.13a39.84,39.84,0,0,0-11.81,4.89L87.06,56.1l17.28,29.74A42.42,42.42,0,0,0,95.2,94.7l-29.45-19L93.47,97.14a40.71,40.71,0,0,0-4,7.92c3.38,2.67,13.82,11,14.18,11S116.87,108.59,116.87,108.59Z" transform="translate(-23.41 -38.1)"/><path class="cls-10" d="M206.94,101,196.5,93.4s-12.6,9.72-13.32,9.94-8.71-2.81-8.71-2.81c-2.95,1.44-21.31,13.68-21.31,13.68L145.6,109l-7.49-1.44-9.87-7.2-11.37,7.78s-12.75,7.34-13.18,7.34-15.26-11.73-15.26-11.73L81.52,96.5c-1.16.79-6.7,3.24-6.7,3.24l-9.43-6.63-17.14,9.72a86.16,86.16,0,0,0-1.8,17.35,81.69,81.69,0,0,0,1.44,15.2c7.13-1.3,20.16-3.17,31-1.8,15.77,2,25.56,4.68,42.19,8.42s28.88,7.2,46.88,5.26C184.69,145.38,196.86,142,208,134a80.08,80.08,0,0,0-1.08-33Z" transform="translate(-23.41 -38.1)"/><path class="cls-10" d="M61.43,152.94a17.16,17.16,0,0,1,5.69,1.16,5.72,5.72,0,0,1,3.67,5.47c0,3.17-2,4.82-5,6.05,0,.43.36.57.94.64,2.59.44,6.55,2.67,6.55,7.35,0,4.89-3.89,8.28-11.88,8.57v-1.37c4.17-.07,7.41-1.87,7.41-6.19,0-3.1-1.58-6.63-7.41-7.35v-1.73c3.31-.5,5-2,5-5.4s-2.23-5.18-5-5.68Zm-9.15,5.76c0-3.24-.21-4.1-2.44-4.24l-1.52-.15c-.21-.21-.14-1.08.08-1.08,2.66-.21,6-.36,10.51-.36.86,0,1.65,0,2.52.07v1.52a10.74,10.74,0,0,0-2.23-.22,5.71,5.71,0,0,0-2.24.29c-.5.07-.64.29-.64,1.08v8.93c0,1.29,0,1.36,2.52,1.29a23.8,23.8,0,0,0,2.59-.29v1.73a12.37,12.37,0,0,0-2.31-.14c-2.66,0-2.8.29-2.8,1.15v6.48c0,1.58.07,3.82,1,4.82a5.09,5.09,0,0,0,3.89,1.23h.22v1.37H60.28c-1.37,0-3.82-.15-5.84-.15s-3.81.07-5.61.15a.87.87,0,0,1-.07-1.16l.86-.07c2.59-.43,2.66-.93,2.66-5.54Z" transform="translate(-23.41 -38.1)"/><path class="cls-10" d="M107.22,163c0-4-.07-4.6-2.52-4.75l-1.08-.07a.87.87,0,0,1,.07-1c2.09.15,3.53.15,5.26.15s3.09,0,5.18-.15a.69.69,0,0,1,.07,1l-1,.07c-2.45.15-2.6.79-2.6,4.75v13.4c0,4,.15,4.53,2.6,4.75l1,.14c.29.15.22.79-.07.94-2.09-.07-3.53-.15-5.18-.15s-3.17.08-5.26.15a.76.76,0,0,1-.07-.94l1.08-.14c2.45-.22,2.52-.79,2.52-4.75Z" transform="translate(-23.41 -38.1)"/><path class="cls-10" d="M130.33,176.49c0,4,.07,4.53,2.38,4.68l1.22.14c.22.15.15.79-.07.94-2.23-.07-3.53-.15-5.11-.15s-3,.08-5.4.15a.57.57,0,0,1,0-.94l1.37-.14c2.23-.15,2.44-.72,2.44-4.68V159.71c0-1.15,0-1.22-1.22-1.22h-2.09c-1.73,0-3.89.07-4.82.93a7.32,7.32,0,0,0-1.8,2.6.8.8,0,0,1-1-.22,38.5,38.5,0,0,0,1.51-5.62c.15-.07.65-.14.72,0,.29,1.23,1.51,1.16,3.31,1.16H137.6c2.09,0,2.45-.08,3-1.08.21-.08.65,0,.72.14a20.85,20.85,0,0,0-.58,5.69c-.14.29-.79.29-1,.07-.14-.94-.36-2.3-1-2.74-.87-.64-2.38-.93-4.54-.93h-2.74c-1.15,0-1.15.07-1.15,1.29Z" transform="translate(-23.41 -38.1)"/><path class="cls-10" d="M147.11,163c0-4-.07-4.6-2.59-4.75l-1-.07c-.29-.22-.15-.86.07-1,2.09.15,3.53.15,5.26.15s3.09,0,5.18-.15c.22.15.36.79.07,1l-1,.07c-2.52.15-2.59.79-2.59,4.75v13.4c0,4,.07,4.53,2.59,4.75l1,.14c.29.15.15.79-.07.94-2.09-.07-3.53-.15-5.18-.15s-3.17.08-5.26.15c-.22-.15-.36-.72-.07-.94l1-.14c2.52-.22,2.59-.79,2.59-4.75Z" transform="translate(-23.41 -38.1)"/><path class="cls-10" d="M165.76,182.61a16,16,0,0,1-6.92-1.37,15.89,15.89,0,0,1-1.15-5.26c.22-.28.87-.36,1-.14.72,1.94,2.52,5.62,7.63,5.62,3.75,0,5.55-2.09,5.55-4.32,0-1.66-.36-3.46-3.6-5.26l-4.25-2.3c-2.23-1.23-4.75-3.39-4.75-6.48,0-3.6,3.24-6.48,9-6.48a18.83,18.83,0,0,1,4.17.5,7.19,7.19,0,0,0,1.51.22,13.33,13.33,0,0,1,.8,4.6c-.15.22-.87.36-1.08.08-.58-1.8-1.8-4.25-6.05-4.25s-5.26,2.45-5.26,4.17c0,2.24,2.09,3.82,3.75,4.68l3.52,1.88c2.81,1.44,5.55,3.6,5.55,7.2C175.19,179.8,171.52,182.61,165.76,182.61Z" transform="translate(-23.41 -38.1)"/><path class="cls-10" d="M188.08,170c-2,0-2,.07-2,1.22v5.26c0,4,.22,4.46,2.45,4.68l1.22.14c.22.15.15.79-.14.94-2.16-.07-3.53-.15-5.11-.15s-3.1.08-4.68.15a.76.76,0,0,1-.08-.94l.65-.14c2.31-.36,2.38-.72,2.38-4.68V163c0-3.89-.29-4.53-2.38-4.68l-1.08-.07a.88.88,0,0,1,.07-1c2,.07,3.39.15,5.12.15s3,0,4.68-.15a.7.7,0,0,1,.07,1l-.72.07c-2.38.22-2.45.79-2.45,4.68v4.32c0,1.15.07,1.23,2,1.23h11.59c1.94,0,2-.08,2-1.23V163c0-3.89-.07-4.46-2.44-4.68l-.8-.07c-.28-.22-.14-.86.08-1,1.87.15,3.24.15,4.89.15s3,0,4.75-.15a.7.7,0,0,1,.08,1l-.87.07c-2.3.22-2.37.79-2.37,4.68v13.54c0,4,.07,4.46,2.37,4.68l1,.14c.22.15.14.79-.07.94-1.95-.07-3.31-.15-4.9-.15s-3.09.08-4.89.15c-.22-.15-.36-.72-.08-.94l.8-.14c2.44-.36,2.44-.72,2.44-4.68v-5.26c0-1.15-.07-1.22-2-1.22Z" transform="translate(-23.41 -38.1)"/><path class="cls-10" d="M29.17,190.53a19.66,19.66,0,0,1,12.31-3.89,35,35,0,0,1,8,1.08,5,5,0,0,0,1.29.22c.07,1,.29,3.88.65,6.62a1,1,0,0,1-1.22.14c-.72-3.09-2.74-6.62-9.36-6.62-6.92,0-12.89,4.39-12.89,13.75s6.12,14.76,13.53,14.76A9.62,9.62,0,0,0,51,210.11a1,1,0,0,1,1.22.22A16.76,16.76,0,0,1,50,216.52a13.24,13.24,0,0,0-1.58.43A26.56,26.56,0,0,1,41.2,218a19.79,19.79,0,0,1-11.31-3,14.59,14.59,0,0,1-6.48-12.46A15.06,15.06,0,0,1,29.17,190.53Z" transform="translate(-23.41 -38.1)"/><path class="cls-10" d="M67.91,191.9h.21c9.08,0,13.68,6.26,13.68,12.88,0,7.56-6.12,13.11-13.68,13.11h-.21v-1.15h.72c4.68,0,9.21-3.39,9.21-10.8,0-6.05-2.73-12.6-9.93-12.89ZM54.08,205.14c0-7.41,5.84-13.17,13.83-13.24v1.15H67.4c-4.1,0-9.43,2.66-9.43,10.94,0,5.4,2.67,12.31,9.94,12.75v1.15C59.27,217.82,54.08,211.91,54.08,205.14Z" transform="translate(-23.41 -38.1)"/><path class="cls-10" d="M126.3,201.9c0-2.3-.07-6.62-.79-7.77a2.89,2.89,0,0,0-2-.79l-1-.08c-.29-.21-.15-.72.07-.86,1.51.07,3,.07,4.53.07s2.74,0,4.18-.07a.58.58,0,0,1,.07.86l-.93.08c-1,.14-1.8.43-2,.93-.58,1.23-.58,5.55-.58,7.63v4.25c0,3.31-.5,6.77-2.73,9-1.73,1.8-4.68,2.74-7.63,2.74-2.74,0-5.48-.51-7.42-2.09-2.16-1.58-3.17-4.39-3.17-8.86v-8.85c0-3.89-.07-4.54-2.37-4.75l-1-.08c-.22-.14-.15-.72.14-.86,2,.07,3.31.07,4.9.07s3,0,4.89-.07c.29.14.36.72.08.86l-.94.08c-2.3.21-2.38.86-2.38,4.75v8.13c0,6.05,2,10,8.07,10,5.76,0,8-4.25,8-10Z" transform="translate(-23.41 -38.1)"/><path class="cls-10" d="M180.73,192.26a14.27,14.27,0,0,1,5.19,1,5,5,0,0,1,3.31,4.76c0,2.73-1.87,4.1-4.47,5.18,0,.36.36.5.8.58,2.37.36,5.9,2.3,5.9,6.33s-3.46,7.13-10.73,7.35V216.3c3.89-.07,6.77-1.58,6.77-5.32,0-2.67-1.44-5.76-6.77-6.41v-1.44c3-.43,4.61-1.73,4.61-4.61s-2-4.46-4.61-5Zm-8.21,5c0-2.8-.14-3.52-2.08-3.67l-1.44-.14c-.15-.15-.22-.87.07-.94,2.37-.14,5.33-.29,9.43-.29a20.13,20.13,0,0,1,2.23.08v1.29a8.39,8.39,0,0,0-1.94-.14,7,7,0,0,0-2,.21c-.43.08-.57.29-.57.94v7.7c0,1.08,0,1.16,2.23,1.08a11.2,11.2,0,0,0,2.3-.21v1.44a17.9,17.9,0,0,0-2-.07c-2.38,0-2.52.21-2.52,1v5.62c0,1.37.07,3.24.86,4.1a4.8,4.8,0,0,0,3.53,1.08h.14v1.16h-.93c-1.3,0-3.46-.08-5.33-.08s-3.39.08-5,.08c-.29-.08-.36-.72-.07-.94l.79-.14c2.3-.29,2.37-.72,2.37-4.68Z" transform="translate(-23.41 -38.1)"/><path class="cls-10" d="M100.81,181.31l-1-.07a1.8,1.8,0,0,0-.57-.07c-1.51-.29-2.16-1.66-2.88-2.95L92.75,172c-.58-1-1.3-2.45-2.74-2.66,3.75-.43,7.06-2.52,7.06-6.19,0-4.25-4.18-6.12-8.43-6.12h-.36v.93c3.1.43,5,2.38,5,5.62a4.79,4.79,0,0,1-2,4.1,6.49,6.49,0,0,1-3,1.15v2.09c.36.51.72,1.15,1.3,2.09l4.32,7.85c.36.65.65,1.37,1.51,1.37h3.82c.5,0,1,.07,1.51.07A.62.62,0,0,0,100.81,181.31ZM88.28,157c-2.37,0-4.6.07-7,.07-1.44,0-3.1-.07-4.54-.07-.79,0-.79.14-.79.57,0,.65.29.51,1.08.51,3,.21,3,.72,3,3.31v16.49c0,2.37.15,3-2.3,3.24a4,4,0,0,1-.58.07l-1.08.14a.78.78,0,0,0,.07.94c.58,0,1.59-.07,1.59-.07,1.37-.08,2.73-.15,4.1-.15s2.67.07,4,.15h0a12.63,12.63,0,0,1,1.59.07.76.76,0,0,0,.07-.94l-1.08-.14h-.58c-2.52-.22-2.37-.94-2.37-3.31v-6.2A4.29,4.29,0,0,1,83.6,170a1.57,1.57,0,0,1,1-.15c2.23,0,3,.15,3.67,1v-2.09a15,15,0,0,1-2.66.15c-.72,0-2.23.29-2.23-.72V161c0-2.81.07-3.17,3.45-3.17a9.39,9.39,0,0,1,1.44.07Z" transform="translate(-23.41 -38.1)"/><path class="cls-10" d="M86.48,198.23c0-4-.07-4.53-2.73-4.75l-1-.07c-.22-.15-.14-.79.07-.94,2.31.07,3.75.15,5.4.15s3-.08,5-.15c.29.15.36.79.15.94l-1,.07c-2.45.22-2.52.79-2.52,4.75v13.11c0,2.3.07,3.31.86,4,.43.43,1.23.86,4.47.86,3.52,0,4.39-.14,5-.5A7.45,7.45,0,0,0,103,212c.29-.14,1.08,0,1.08.29a25.23,25.23,0,0,1-1.8,5.26c-2.09-.07-6-.15-10.22-.15H88.21c-1.73,0-3.09.08-5.4.15a.76.76,0,0,1-.07-.94l1.22-.14c2.45-.22,2.52-.72,2.52-4.68Z" transform="translate(-23.41 -38.1)"/><path class="cls-10" d="M197.15,198.3c0-4-.07-4.6-2.45-4.82l-1-.07c-.29-.15-.21-.79.07-.94,2,.07,3.39.15,5.12.15s3-.08,5-.15c.21.15.28.79.07.94l-1,.07c-2.45.22-2.52.86-2.52,4.82v13.4c0,4,.07,4.46,2.52,4.75l1,.14c.21.15.14.79-.07.94-2.09-.07-3.46-.15-5-.15s-3.1.08-5.12.15a.62.62,0,0,1-.07-.94l1-.14c2.38-.29,2.45-.79,2.45-4.75Z" transform="translate(-23.41 -38.1)"/><path class="cls-10" d="M164.75,216.45a4,4,0,0,1-.58-.07,1.38,1.38,0,0,1-1.15-.44c-.5-.57-.5-2.16-.5-2.8V196.72c0-.72-.15-2.3.36-2.88.28-.29.79-.29,1.29-.36h.58l1.08-.07c.21-.15.14-.87-.15-.94h-6c-.43,0-.87,0-1.15.51l-9,18.86-8-18.22c-.28-.64-.36-1.15-1.15-1.15h-6.19c-.22.07-.36.79-.07.94l1,.07h.64c1.73.14,1.8.5,1.66,2.38l-1.37,17.64c-.07,1.72-.21,2.66-2.09,2.88a4,4,0,0,1-.57.07l-1.08.07c-.22.29-.15.86.14.94H134c.94-.08,1.88-.15,2.88-.15s2,.07,3.1.15h0a12,12,0,0,1,1.51.07.62.62,0,0,0,.07-.94l-1-.14a2.84,2.84,0,0,1-.58-.07c-2.66-.15-2.66-2.09-2.45-4.4l1.23-16.41h.36l8.64,20.23c.07.29.21.72.64.72s.51-.43.65-.72l9.72-20.66h.29v18c0,.72.07,2.23-.65,2.8a5,5,0,0,1-1.65.44c-.15,0-.36.07-.58.07l-1,.14a.62.62,0,0,0,.07.94c.58-.07,1.52-.07,1.52-.07,1.44-.08,2.88-.15,4.32-.15,1,0,3,.07,3,.07.5.08,1,.08,1.58.15a.62.62,0,0,0,.08-.94Z" transform="translate(-23.41 -38.1)"/><path class="cls-10" d="M232.5,216.52l-.14-.07a1.89,1.89,0,0,0-.58-.07c-1.66-.36-2.23-2.31-2.88-3.75l-8.35-19.8c-.07-.21-.22-.72-.58-.72s-.57.58-.72.87l-.29.79v4.32c.22.14.51,1,.65,1.22l2.88,6.77c0,.07.29.72.29.86,0,.44-1,.29-1.22.29H219v1.08h2.6c2,0,1.65,0,2.59,2l1.29,3a6,6,0,0,1,.58,2c0,1-1.08,1.08-2.09,1.15h-.65l-1,.07c-.22.29-.15.86.07.94h1.58c1.15-.08,2.38-.15,3.53-.15,1.44,0,2.88.07,4.32.15h.65C232.64,217.38,232.72,216.74,232.5,216.52ZM219,193.77l-7.7,18.93a12.42,12.42,0,0,1-1.51,3.1,2.58,2.58,0,0,1-1.59.58,5.7,5.7,0,0,1-.64.07l-.94.14a.62.62,0,0,0,.07.94c.51-.07,1.51-.07,1.51-.07,1.08,0,2.16-.15,3.32-.15.86,0,1.8.07,2.73.15h1.51c.29-.08.36-.65.15-.94l-1.08-.07a4,4,0,0,1-.58-.07c-.93-.08-2.16-.29-2.16-1.3a7.72,7.72,0,0,1,.58-2.23l1.29-2.95c.58-1.37.36-1.59,2-1.59h3v-1.08h-2.3c-.14,0-1.51.15-1.51-.21,0-.15.07-.36.07-.51l2.95-7.2c.07-.21.36-1.22.72-1.22H219Z" transform="translate(-23.41 -38.1)"/></g><g id="BCID"><rect class="cls-11" x="250.99" width="2.02" height="185.54"/><path class="cls-10" d="M339.13,76.19c4.32.22,8.35.94,11.74,2.81,4.68,2.45,8.06,6.77,8.06,13.61,0,9.29-7.27,14.33-12.17,16.27-.5.58,0,1.58.51,2.38,7.77,12.52,13,20.37,19.58,25.92a12,12,0,0,0,6.7,2.73.81.81,0,0,1,.07,1.37,14.68,14.68,0,0,1-4.25.5c-8.28,0-13.25-2.44-20.16-12.31-2.59-3.6-6.55-10.37-9.57-14.69-.15-.28-.36-.5-.51-.79v-5.54a12.24,12.24,0,0,0,6.05-2.31c2.66-2,4.9-5.4,4.9-12s-3.39-12.74-10.95-14.54Zm-19,14.91c0-9.29-.28-10.95-4.24-11.45l-3.17-.36c-.65-.51-.65-2.09.14-2.45,5.47-.5,12.17-.79,21.75-.79,1.51,0,3,.07,4.53.14v3.39a23.13,23.13,0,0,0-4.68-.51c-6.05,0-6.33.36-6.33,3.1V105c0,1.8,0,2.81.28,3.24s1.8.51,6.77.51a25.75,25.75,0,0,0,4-.29V114c-1.37-1.58-2.95-2.37-6.41-2.37-4.39,0-4.6.14-4.6,2.16v12.31c0,10.22.21,11.37,5.83,12.17l2.09.28a2,2,0,0,1-.22,2.45c-4.39-.21-7.7-.29-11.59-.29-4.11,0-7.56.08-12.17.29a1.93,1.93,0,0,1-.22-2.45l2.45-.28c5.69-.72,5.83-1.95,5.83-12.17Z" transform="translate(-23.41 -38.1)"/><path class="cls-10" d="M388.67,135.52a15.76,15.76,0,0,0,6,1.08c3.17,0,5.91-1,8.93-4.82A1.26,1.26,0,0,1,405.3,133c-3.17,6.62-10.22,9-15.26,9h-1.37v-6.48Zm0-34.42a17.26,17.26,0,0,1,2.73-.21c8.36,0,13.83,5.76,13.83,11.59a8,8,0,0,1-.36,2.59c-.29.58-1.66.65-5.76.65H388.67v-3c6,0,7.85-.43,8.57-.94.28-.21.57-.57.57-1.87,0-2.74-1.87-6.12-7.49-6.12a13.12,13.12,0,0,0-1.65.14ZM381,115.72c-2.52,0-2.6.22-2.6,2.66,0,7.78,3.6,14.62,10.23,17.14V142a17,17,0,0,1-12.75-6.41,20.49,20.49,0,0,1-4.1-12.67c0-11,6.7-20.38,16.85-21.82V104c-5,.87-9.07,5.4-9.15,8.36,0,.14,0,.43.65.43h8.5v3Z" transform="translate(-23.41 -38.1)"/><path class="cls-10" d="M441.8,102.54a5.49,5.49,0,0,1,1.44,3.89c0,1.8-.93,3.67-2.16,3.67a1.81,1.81,0,0,1-1.36-.72c-2.09-2.59-5.76-5.18-9.72-5.18-6.84,0-13.47,5.4-13.47,15.7,0,7.63,5.26,16.7,15.7,16.7,5.69,0,8.57-2.52,10.8-5.83a1.54,1.54,0,0,1,1.8,1.29c-3.31,7.28-10.66,9.94-16.27,9.94-5.19,0-9.94-1.58-13.4-4.9s-5.61-8.13-5.61-14.47c0-10.51,7.41-21.74,23.54-21.74A25.08,25.08,0,0,1,441.8,102.54Z" transform="translate(-23.41 -38.1)"/><path class="cls-10" d="M453.61,112.7c0-3.82,0-4.25-2.66-6l-.87-.58a1.24,1.24,0,0,1,.08-1.73A73,73,0,0,0,460,99.52c.5.14.79.29.79.72v5.62c0,.5.07.79.29.93,3.38-2.88,7.13-5.9,10.66-5.9,2.44,0,4.39,1.58,4.39,3.89a4.38,4.38,0,0,1-4.25,4.53,3.34,3.34,0,0,1-2.09-.72,8.08,8.08,0,0,0-4.25-1.51A4.3,4.3,0,0,0,462,109c-.94,1.37-1.23,4.18-1.23,7.49v13.25c0,7,.22,8.21,3.89,8.5l3.53.28A1.78,1.78,0,0,1,468,141c-4.61-.21-7.41-.29-10.8-.29s-6.48.08-9,.29a1.78,1.78,0,0,1-.21-2.45l1.87-.28c3.6-.58,3.74-1.52,3.74-8.5Z" transform="translate(-23.41 -38.1)"/><path class="cls-10" d="M534.32,120.47c1.44-.43,1.66-1.37,1.66-2.81l.07-4.46c.07-3.6-1.08-8.5-7.13-8.5h0v-3.16a13.26,13.26,0,0,1,4-.65c7,0,10.44,4.1,10.15,11.45l-.65,16.92c-.14,4.53.72,8.49,4.54,8.49a6.22,6.22,0,0,0,2.44-.57c.44-.29.94-.72,1.23-.72s.72.64.72,1.29-3.46,4.25-8.21,4.25a7.82,7.82,0,0,1-6.34-2.95c-.43-.65-1-1.37-1.58-1.37s-1.8.86-3.82,1.94a24.89,24.89,0,0,1-2.52,1.3v-3.31a11.08,11.08,0,0,0,5.26-2.38c1.22-1.15,1.22-2.52,1.3-4.61l.21-5.76c0-1.08-.43-1.22-1-1.22a17.68,17.68,0,0,0-4,.94c-.64.21-1.29.43-1.8.64v-2.73Zm-5.4-15.77c-2.73,0-6,1.37-6.19,4.4-.14,1.58-.21,2.73-1,3.31a10.64,10.64,0,0,1-5.54,1.87,1.25,1.25,0,0,1-1.37-1.37c0-4.17,7.49-9.65,14.11-11.37v3.16Zm0,36.22a10.12,10.12,0,0,1-4.46,1.08,9.93,9.93,0,0,1-6.84-2.23,9.18,9.18,0,0,1-3-6.77c0-3.82,1.87-6,8.13-8.28l6.19-2.23v2.73c-4.53,1.66-6.84,3.17-6.84,6.56a6,6,0,0,0,6.2,5.9c.21,0,.43-.07.64-.07Z" transform="translate(-23.41 -38.1)"/><path class="cls-10" d="M567.16,106.36c-1.66,0-1.73.29-1.73,2.38V127c0,5.62.65,10.8,7.05,10.8a7.6,7.6,0,0,0,2.67-.5c.86-.29,2.16-1.37,2.45-1.37.79,0,1.15,1.08.93,1.66A13.3,13.3,0,0,1,568.31,142c-8.35,0-10.15-4.61-10.15-10.51V109.17c0-2.59-.08-2.81-2-2.81H553.4a1.63,1.63,0,0,1-.28-2,22,22,0,0,0,6.26-3,25.4,25.4,0,0,0,4-5.76,1.82,1.82,0,0,1,2.09.5v4.4c0,1.72.07,1.8,1.73,1.8H578.1c1.15.86.94,3.52.07,4.1Z" transform="translate(-23.41 -38.1)"/><path class="cls-10" d="M588.11,112.7c0-3.82,0-4.25-2.67-6l-.86-.58a1.33,1.33,0,0,1,.14-1.73,63.1,63.1,0,0,0,10-4.82,1,1,0,0,1,1,.58c-.22,3.45-.43,8.13-.43,12.09v17.57c0,7,.21,8,3.74,8.5l2,.28a1.66,1.66,0,0,1-.22,2.45c-2.88-.21-5.76-.29-9.14-.29-3.53,0-6.41.08-9.15.29-.72-.29-.86-1.94-.21-2.45l2.09-.28c3.6-.51,3.67-1.52,3.67-8.5V112.7Zm8.06-27.8a5,5,0,0,1-10.08.22,5,5,0,0,1,5.26-5.26A4.83,4.83,0,0,1,596.17,84.9Z" transform="translate(-23.41 -38.1)"/><path class="cls-10" d="M646.57,121.12c0,12-8.21,20.81-20.23,20.88v-2.88H627c8.57,0,11.23-9,11.23-16.49,0-8.06-3.17-18.29-11.88-18.79v-3h.43C637.72,100.89,646.57,109.1,646.57,121.12ZM626.34,142h-.29c-11.23,0-20-7.85-20-20s9-20.8,20.3-21.09v3h-.72c-6.41,0-11.23,6.12-11.23,16.85,0,8.64,3.81,17.93,12,18.43Z" transform="translate(-23.41 -38.1)"/><path class="cls-10" d="M658.6,112.7c0-3.82,0-4.25-2.67-6l-.86-.58a1.41,1.41,0,0,1,.07-1.73c2.3-.79,7.85-3.31,9.79-4.82a1.21,1.21,0,0,1,1.08.72,44.5,44.5,0,0,0-.21,4.54,1,1,0,0,0,1.08,1.08c4.1-2.52,8.64-5,13.6-5,8.14,0,11.45,5.54,11.45,12.09v16.78c0,7,.15,8,3.67,8.5l2.16.28c.65.51.51,2.16-.21,2.45-2.88-.21-5.76-.29-9.15-.29s-6.4.08-9.07.29a1.78,1.78,0,0,1-.21-2.45l1.87-.28c3.6-.58,3.74-1.52,3.74-8.5V115.22c0-5.55-2.59-9.65-9.21-9.65-3.68,0-6.92,1.58-8.28,3.45-1.23,1.66-1.44,3-1.44,5.84v14.9c0,7,.21,7.92,3.67,8.5l1.8.28a1.72,1.72,0,0,1-.22,2.45c-2.59-.21-5.47-.29-8.85-.29-3.53,0-6.41.08-9.15.29a1.66,1.66,0,0,1-.21-2.45l2-.28c3.6-.51,3.75-1.52,3.75-8.5Z" transform="translate(-23.41 -38.1)"/><path class="cls-10" d="M744.49,142.14c-8.21,0-13.39-2.44-15.26-3.52-1.15-2.16-2.38-9.08-2.59-13.61.5-.72,1.94-.94,2.3-.29,1.51,5,5.47,14.47,16.78,14.47,8.2,0,12.16-5.33,12.16-11.16,0-4.32-.86-9.07-8-13.68l-9.21-6c-4.9-3.24-10.59-8.78-10.59-16.77,0-9.22,7.27-16.78,19.95-16.78a39.83,39.83,0,0,1,9.07,1.3,11,11,0,0,0,3.38.57,43.55,43.55,0,0,1,1.73,11.88c-.36.65-1.94.94-2.38.29-1.29-4.68-4-11-13.32-11s-11.59,6.33-11.59,10.87c0,5.61,4.68,9.72,8.28,11.95l7.85,4.9c6.12,3.81,12.17,9.43,12.17,18.72C765.23,134.94,757.09,142.14,744.49,142.14Z" transform="translate(-23.41 -38.1)"/><path class="cls-10" d="M777.68,112.7c0-3.82,0-4.25-2.59-6l-.93-.58a1.33,1.33,0,0,1,.14-1.73,63.52,63.52,0,0,0,10-4.82,1,1,0,0,1,1,.58c-.22,3.45-.44,8.13-.44,12.09v17.57c0,7,.22,8,3.75,8.5l2,.28a1.71,1.71,0,0,1-.14,2.45c-3-.21-5.76-.29-9.22-.29s-6.4.08-9.14.29a1.79,1.79,0,0,1-.22-2.45l2.09-.28c3.6-.51,3.67-1.52,3.67-8.5V112.7Zm8.14-27.8c0,3.53-2.45,5.12-5.18,5.12a4.79,4.79,0,0,1-5-4.9,5,5,0,0,1,5.25-5.26A4.89,4.89,0,0,1,785.82,84.9Z" transform="translate(-23.41 -38.1)"/><path class="cls-10" d="M809.8,106.36c-1.66,0-1.8.29-1.8,2.38V127c0,5.62.72,10.8,7.12,10.8a7.6,7.6,0,0,0,2.67-.5c.86-.29,2.09-1.37,2.37-1.37.8,0,1.23,1.08,1,1.66A13.3,13.3,0,0,1,811,142c-8.43,0-10.15-4.61-10.15-10.51V109.17c0-2.59-.08-2.81-2-2.81H796a1.54,1.54,0,0,1-.28-2,20.44,20.44,0,0,0,6.19-3,23.54,23.54,0,0,0,4.1-5.76,1.82,1.82,0,0,1,2.09.5v4.4c0,1.72.07,1.8,1.73,1.8h10.8c1.15.86,1,3.52.14,4.1Z" transform="translate(-23.41 -38.1)"/><path class="cls-10" d="M841.48,135.52a15.36,15.36,0,0,0,5.9,1.08c3.24,0,6-1,9-4.82a1.27,1.27,0,0,1,1.73,1.22c-3.24,6.62-10.23,9-15.27,9h-1.36v-6.48Zm0-34.42a17.26,17.26,0,0,1,2.73-.21c8.35,0,13.83,5.76,13.83,11.59a5.83,5.83,0,0,1-.44,2.59c-.28.58-1.65.65-5.76.65H841.48v-3c5.9,0,7.84-.43,8.56-.94.29-.21.58-.57.58-1.87,0-2.74-1.87-6.12-7.49-6.12a12.08,12.08,0,0,0-1.65.14Zm-7.64,14.62c-2.52,0-2.66.22-2.66,2.66,0,7.78,3.6,14.62,10.3,17.14V142a17.29,17.29,0,0,1-12.82-6.41,20.94,20.94,0,0,1-4.1-12.67c0-11,6.69-20.38,16.92-21.82V104c-5,.87-9.08,5.4-9.22,8.36,0,.14,0,.43.72.43h8.5v3Z" transform="translate(-23.41 -38.1)"/><path class="cls-10" d="M885.47,102.69a21.28,21.28,0,0,1,1.58,7.85,1.62,1.62,0,0,1-2.3.28c-1.66-4.24-4.61-7-8.64-7-3.75,0-6.19,2.37-6.19,5.9,0,4,4.1,6.12,7.48,8.14,5.19,2.88,9.94,6.19,9.94,13.1,0,7.42-6.84,11.09-14,11.09-4.54,0-8-.94-10.44-2.88a30,30,0,0,1-1.15-9.86,1.66,1.66,0,0,1,2.23-.08c1.66,5.33,4.82,10,10.37,10,3.53,0,6.48-2,6.48-6.19,0-4.54-3.89-6.91-7.49-9-5.62-3.24-9.65-6.62-9.65-12,0-7.13,5.83-11.16,13.25-11.16C881,100.89,884.6,101.9,885.47,102.69Z" transform="translate(-23.41 -38.1)"/><path class="cls-10" d="M496.16,208.74c0,10.23.22,11.67,5.84,12.17l3.16.29c.58.36.36,2.16-.21,2.45-5.55-.22-8.86-.29-12.75-.29s-7.34.07-13.53.29a1.66,1.66,0,0,1,0-2.45l3.45-.29c5.55-.5,6.05-1.94,6.05-12.17V165.18c0-3,0-3.16-2.88-3.16h-5.4c-4.17,0-9.57.21-11.88,2.44a17.7,17.7,0,0,0-4.39,6.77,2,2,0,0,1-2.59-.72A103.56,103.56,0,0,0,464.77,156c.29-.15,1.59-.29,1.87,0,.58,3.17,3.68,3,8.21,3h39.46c5.25,0,6.12-.14,7.63-2.73.43-.15,1.51-.08,1.73.36a58.27,58.27,0,0,0-1.44,14.76,1.9,1.9,0,0,1-2.59.21c-.29-2.45-.94-6.05-2.38-7.13-2.3-1.65-6-2.44-11.3-2.44h-7c-2.88,0-2.81.14-2.81,3.31Z" transform="translate(-23.41 -38.1)"/><path class="cls-10" d="M520.57,195.35c0-3.74,0-4.25-2.66-6l-.87-.57a1.4,1.4,0,0,1,.08-1.73,81.47,81.47,0,0,0,9.86-4.75c.5.07.79.29.79.65v5.68c0,.44.07.72.29.87,3.38-2.88,7.13-5.83,10.73-5.83,2.45,0,4.39,1.51,4.39,3.88A4.36,4.36,0,0,1,539,192a3.42,3.42,0,0,1-2.16-.72,8.41,8.41,0,0,0-4.32-1.51,4.4,4.4,0,0,0-3.52,1.94c-.94,1.37-1.23,4.18-1.23,7.49v13.25c0,7.05.22,8.2,3.89,8.49l3.53.29a1.72,1.72,0,0,1-.22,2.45c-4.61-.22-7.41-.29-10.8-.29s-6.48.07-9,.29a1.78,1.78,0,0,1-.21-2.45l1.87-.29c3.6-.57,3.74-1.44,3.74-8.49Z" transform="translate(-23.41 -38.1)"/><path class="cls-10" d="M565.5,203.2c1.44-.5,1.66-1.37,1.66-2.88l.07-4.46c.07-3.6-1.08-8.5-7.13-8.5h0v-3.17a16,16,0,0,1,4-.57c7,0,10.44,4,10.15,11.37l-.64,16.92c-.15,4.54.72,8.5,4.53,8.5a6.1,6.1,0,0,0,2.45-.58,3.4,3.4,0,0,1,1.22-.65c.44,0,.72.58.72,1.23,0,.5-3.45,4.32-8.2,4.32a7.7,7.7,0,0,1-6.34-3c-.36-.57-1-1.36-1.58-1.36s-1.8.86-3.75,1.94c-.86.43-1.73.94-2.59,1.37v-3.39a11.17,11.17,0,0,0,5.26-2.37c1.22-1.15,1.22-2.52,1.29-4.61l.22-5.69c0-1.08-.43-1.29-1-1.29a18,18,0,0,0-4,.93c-.65.22-1.3.43-1.8.65v-2.74Zm-5.4-15.84c-2.74.07-6.05,1.44-6.19,4.39-.15,1.59-.22,2.74-1,3.31a10,10,0,0,1-5.54,1.88,1.25,1.25,0,0,1-1.37-1.37c0-4.18,7.49-9.58,14.11-11.38v3.17Zm0,36.29a11.43,11.43,0,0,1-4.46,1.08,10.26,10.26,0,0,1-6.84-2.23,9.36,9.36,0,0,1-3-6.84c0-3.82,1.87-6,8.14-8.28l6.19-2.24v2.74c-4.54,1.66-6.77,3.24-6.77,6.62a5.85,5.85,0,0,0,6.12,5.84,1.82,1.82,0,0,0,.65-.08Z" transform="translate(-23.41 -38.1)"/><path class="cls-10" d="M590.34,195.35c0-3.74,0-4.25-2.66-6l-.87-.57A1.32,1.32,0,0,1,587,187a69.67,69.67,0,0,0,10-4.75c.51,0,.87.14,1,.57-.21,3.39-.43,8.07-.43,12.1v17.5c0,7.05.22,8,3.74,8.49l2,.29a1.66,1.66,0,0,1-.22,2.45c-2.88-.22-5.76-.29-9.14-.29-3.53,0-6.41.07-9.14.29a1.72,1.72,0,0,1-.22-2.45l2.09-.29c3.6-.5,3.67-1.44,3.67-8.49V195.35Zm8.06-27.72c0,3.46-2.37,5-5.11,5a4.79,4.79,0,0,1-5-4.89,5.07,5.07,0,0,1,5.26-5.26A4.89,4.89,0,0,1,598.4,167.63Z" transform="translate(-23.41 -38.1)"/><path class="cls-10" d="M620.65,212.42c0,7.05.22,8,3.67,8.49l2.38.29a1.72,1.72,0,0,1-.22,2.45c-3.16-.22-6-.29-9.43-.29s-6.41.07-9.36.29c-.72-.29-.86-2-.21-2.45l2.23-.29c3.6-.5,3.74-1.44,3.74-8.49V168.35c0-5.76-.14-6.33-3-8.06l-1-.58a1.62,1.62,0,0,1,0-1.94A67.86,67.86,0,0,0,620,153.66a1.14,1.14,0,0,1,.94.58c-.07,2.95-.29,7.78-.29,12.1Z" transform="translate(-23.41 -38.1)"/><path class="cls-10" d="M654.71,185.34a23.25,23.25,0,0,1,1.51,7.92c-.36.65-1.87.87-2.3.29-1.66-4.32-4.61-7.13-8.57-7.13s-6.27,2.45-6.27,5.91c0,4,4.11,6.19,7.49,8.13,5.19,2.88,9.94,6.2,9.94,13.11,0,7.41-6.77,11.16-14,11.16-4.54,0-8-1-10.44-2.95a32.13,32.13,0,0,1-1.15-9.87,1.66,1.66,0,0,1,2.23-.07c1.65,5.4,4.82,10.08,10.37,10.08,3.52,0,6.55-2.09,6.55-6.26,0-4.47-4-6.92-7.56-9-5.62-3.17-9.65-6.63-9.65-12,0-7.12,5.9-11.08,13.25-11.08C650.17,183.62,653.77,184.55,654.71,185.34Z" transform="translate(-23.41 -38.1)"/><path class="cls-12" d="M712.52,158.85a30.53,30.53,0,0,1,11.38,2.59,12.9,12.9,0,0,1,7.42,12.17c0,7-4.11,10.65-9.94,13.39,0,.94.72,1.22,1.8,1.44a16.17,16.17,0,0,1,13.1,16.27c0,10.87-7.7,18.29-23.76,18.87v-3c8.43-.14,14.84-4,14.84-13.68,0-6.84-3.1-14.76-14.84-16.34v-3.74c6.63-1.16,10.16-4.54,10.16-12,0-7.63-4.54-11.44-10.16-12.74Zm-18.14,12.81c0-7.2-.43-9.07-4.82-9.43l-3.1-.29a1.55,1.55,0,0,1,.07-2.44c5.26-.51,11.88-.8,21-.8,1.73,0,3.39.08,5,.15v3.31a21.24,21.24,0,0,0-4.32-.43,13.2,13.2,0,0,0-4.53.57c-.94.29-1.3.8-1.3,2.6v19.72c0,2.74.07,3,5,2.74a36,36,0,0,0,5.11-.5v3.74a28.83,28.83,0,0,0-4.53-.29c-5.26,0-5.62.58-5.62,2.52v14.4c0,3.53.15,8.5,2,10.66s4.75,2.73,7.7,2.73h.43v3c-.72.07-1.44.07-2.16.07-2.88,0-7.63-.29-11.73-.29s-7.56.22-11.23.29c-.58-.29-.72-1.87-.15-2.45l1.73-.29c5.18-.86,5.4-1.94,5.4-12.17Z" transform="translate(-23.41 -38.1)"/><path class="cls-12" d="M756.44,165.76c7.13-5.54,16.2-8.28,26.28-8.28a78.34,78.34,0,0,1,17.28,2.3,8.32,8.32,0,0,0,2.74.44c.07,2.23.58,8.35,1.37,14.32a2.17,2.17,0,0,1-2.67.15c-1.44-6.63-5.83-14.19-19.94-14.19-14.9,0-27.58,9.44-27.58,29.6,0,20.52,13,31.82,29,31.82,12.53,0,18.14-8.21,20.37-14a2.05,2.05,0,0,1,2.52.36c-.72,5.11-3.24,11.52-4.68,13.39a23.82,23.82,0,0,0-3.38.94,57,57,0,0,1-15.41,2.3c-8.78,0-17.21-1.8-24.26-6.55a31.4,31.4,0,0,1-13.9-26.78A32.37,32.37,0,0,1,756.44,165.76Z" transform="translate(-23.41 -38.1)"/><path class="cls-10" d="M331.72,203c1.44-.43,1.65-1.29,1.65-2.8l.07-4.47c.08-3.6-1.08-8.42-7.12-8.42h0v-3.17a13.46,13.46,0,0,1,4-.65c7,0,10.37,4.11,10.08,11.38l-.58,16.92c-.21,4.46.65,8.42,4.47,8.42a5.66,5.66,0,0,0,2.44-.57c.51-.29.94-.65,1.23-.65s.72.57.72,1.22-3.39,4.32-8.21,4.32a7.64,7.64,0,0,1-6.26-3c-.44-.58-1-1.37-1.59-1.37s-1.87.86-3.74,1.94c-.87.44-1.73.94-2.59,1.37v-3.38a11.09,11.09,0,0,0,5.25-2.38c1.15-1.15,1.15-2.52,1.3-4.53l.21-5.76c0-1.08-.43-1.23-1-1.23a17.44,17.44,0,0,0-4,.94c-.65.21-1.23.43-1.8.65V205Zm-5.4-15.69c-2.74,0-6,1.37-6.2,4.39-.07,1.51-.21,2.66-.93,3.24a10.26,10.26,0,0,1-5.55,1.87,1.24,1.24,0,0,1-1.36-1.37c0-4.17,7.41-9.57,14-11.3v3.17Zm0,36.14a11.27,11.27,0,0,1-4.47,1.08,10.09,10.09,0,0,1-6.77-2.23,9.08,9.08,0,0,1-3-6.84c0-3.74,1.87-6,8.06-8.28l6.2-2.16v2.74c-4.54,1.65-6.77,3.16-6.77,6.55a5.85,5.85,0,0,0,6.12,5.83,2.09,2.09,0,0,0,.65-.07Z" transform="translate(-23.41 -38.1)"/><path class="cls-10" d="M355.48,195.21c0-3.75,0-4.25-2.6-6l-.86-.57a1.33,1.33,0,0,1,.07-1.8c2.23-.72,7.78-3.24,9.72-4.76a1.21,1.21,0,0,1,1.08.72,44.71,44.71,0,0,0-.21,4.54,1,1,0,0,0,1.08,1.08c4.1-2.52,8.64-5,13.6-5,8.07,0,11.38,5.55,11.38,12.1v16.7c0,7,.14,7.92,3.67,8.43l2.16.28a1.79,1.79,0,0,1-.21,2.45c-3-.21-5.76-.29-9.15-.29s-6.41.08-9,.29c-.72-.29-.86-1.94-.21-2.45l1.87-.28c3.53-.58,3.67-1.44,3.67-8.43V197.8c0-5.54-2.52-9.65-9.14-9.65-3.68,0-6.92,1.59-8.28,3.39s-1.44,3-1.44,5.83v14.9c0,7,.21,7.85,3.67,8.43l1.8.28a1.78,1.78,0,0,1-.22,2.45c-2.66-.21-5.47-.29-8.85-.29s-6.41.08-9.15.29a1.71,1.71,0,0,1-.14-2.45l2-.28c3.6-.51,3.68-1.44,3.68-8.43Z" transform="translate(-23.41 -38.1)"/><path class="cls-10" d="M436.26,209c0,7.63.07,11.23,2.81,11.23a15.37,15.37,0,0,0,4.17-.93c.65.21.72,2.59-.14,3.09a73.32,73.32,0,0,0-12.82,3.1c-.57,0-1.08-.29-1.08-.79V223a14.13,14.13,0,0,0-.14-2.95h-.43c-3.82,2.59-6.91,4.1-10.95,4.39v-5a15,15,0,0,0,3.17.36c2.67,0,6-1.15,7.49-2.73.58-.58.72-2,.72-3.6V194.34A5.65,5.65,0,0,0,428,190.6a10,10,0,0,0-8.21-4.1c-.72,0-1.37.07-2.09.14v-2.81a28.22,28.22,0,0,1,4.25-.36,21.16,21.16,0,0,1,6.55.87c.44,0,.58-.58.58-1.3V168.35c0-5.76-.14-6.33-3-8.06l-1-.58a1.62,1.62,0,0,1,0-1.94,65.19,65.19,0,0,0,10.51-4.11,1.25,1.25,0,0,1,1,.58c-.15,2.95-.29,7.78-.29,12Zm-18.58,15.48c-.36,0-.86.07-1.29.07-10.8,0-17.93-8.49-17.93-18.65,0-12.16,8.14-20.37,19.22-22v2.81c-7.41,1.15-11.3,8.21-11.3,16s3.89,15.27,11.3,16.85Z" transform="translate(-23.41 -38.1)"/><path class="cls-10" d="M494.15,135.52a15.39,15.39,0,0,0,5.9,1.08c3.24,0,6-1,9-4.75a1.24,1.24,0,0,1,1.73,1.15c-3.17,6.62-10.22,9-15.26,9h-1.37v-6.48Zm0-34.42a17.26,17.26,0,0,1,2.73-.21c8.36,0,13.83,5.76,13.83,11.66a7.8,7.8,0,0,1-.36,2.52c-.36.58-1.66.65-5.76.65H494.15v-3c6,0,7.85-.36,8.57-.94.28-.21.57-.57.57-1.87,0-2.74-1.87-6.12-7.49-6.12a12.08,12.08,0,0,0-1.65.14Zm-7.63,14.62c-2.52,0-2.6.22-2.6,2.66,0,7.78,3.6,14.62,10.23,17.14V142a17.31,17.31,0,0,1-12.82-6.41,20.72,20.72,0,0,1-4-12.67c0-11,6.62-20.38,16.85-21.82V104c-5,.87-9.07,5.4-9.15,8.36,0,.21,0,.5.65.5h6.91a11.57,11.57,0,0,0,1.59-.07v3Z" transform="translate(-23.41 -38.1)"/></g></svg>